#!OML:ASF G:\JayActor3\Patient Classification 1\Patient 1\Session 5\male.ASF
:FULLY-SPECIFIED
:DEGREES
1009
root -35.3244 16.6724 -5.03911 -884.505 89.3784 -906.943
lowerback 26.5861 -1.1578 0.89017
upperback 5.97088 -0.838602 -0.766856
thorax -8.11519 -0.218883 -1.11609
lowerneck 6.09116 -0.0672304 0.319818
upperneck -17.114 0.588508 2.33459
head -6.19281 0.200471 0.632757
rclavicle -1.19271e-015 -7.95139e-015
rhumerus -28.0675 3.91734 -88.2349
rradius 36.0048
rwrist -4.35533
rhand -20.9095 -6.87591
rfingers 7.12502
rthumb 5.46172 -36.7855
lclavicle -1.19271e-015 -7.95139e-015
lhumerus -29.2708 -7.26204 88.117
lradius 35.1667
lwrist 24.3246
lhand -20.1945 9.30922
lfingers 7.12502
lthumb 6.15208 39.1999
rfemur -57.8225 -2.94388 28.9039
rtibia 39.3846
rfoot -8.01005 -10.2184
rtoes 6.62808
lfemur -33.4316 5.15345 -22.2655
ltibia 58.2559
lfoot -4.67527 -5.52413
ltoes -15.1032
1010
root -35.4421 16.6523 -5.06355 -894.904 89.5141 -917.276
lowerback 26.543 -1.14794 0.795164
upperback 5.97373 -0.857306 -0.814889
thorax -8.09011 -0.226509 -1.10858
lowerneck 6.11389 -0.0623364 0.32825
upperneck -17.0656 0.594295 2.34173
head -6.18155 0.201372 0.633198
rclavicle 1.17283e-014 1.68967e-014
rhumerus -28.0776 3.90933 -88.2684
rradius 36.0347
rwrist -4.32313
rhand -20.9104 -6.83071
rfingers 7.12502
rthumb 5.46085 -36.7403
lclavicle 1.17283e-014 1.68967e-014
lhumerus -29.2523 -7.27643 88.1425
lradius 35.2056
lwrist 24.3461
lhand -20.2128 9.30624
lfingers 7.12502
lthumb 6.13435 39.1974
rfemur -58.1625 -2.87255 28.7409
rtibia 39.2411
rfoot -7.45319 -10.3655
rtoes 6.57203
lfemur -32.4367 5.11686 -22.5917
ltibia 56.6529
lfoot -6.88699 -5.42629
ltoes -16.6773
1011
root -35.5613 16.6327 -5.08901 -912.499 89.6052 -934.8
lowerback 26.503 -1.14293 0.710829
upperback 5.9772 -0.879667 -0.87036
thorax -8.0662 -0.236002 -1.11427
lowerneck 6.15442 -0.066439 0.347282
upperneck -17.0402 0.591021 2.35393
head -6.18058 0.196656 0.634163
rclavicle -1.27222e-014 -1.19271e-014
rhumerus -28.0925 3.86657 -88.3006
rradius 36.0656
rwrist -4.28798
rhand -20.9186 -6.80977
rfingers 7.12502
rthumb 5.45294 -36.7196
lclavicle -1.27222e-014 -1.19271e-014
lhumerus -29.2399 -7.31323 88.1666
lradius 35.2464
lwrist 24.361
lhand -20.2216 9.30373
lfingers 7.12502
lthumb 6.12586 39.1952
rfemur -58.5011 -2.818 28.5621
rtibia 39.0854
rfoot -6.81959 -10.5215
rtoes 6.48782
lfemur -31.4975 5.06573 -22.941
ltibia 55.0827
lfoot -9.07585 -5.26723
ltoes -17.7349
1012
root -35.6821 16.6148 -5.11499 -937.08 89.6159 -959.306
lowerback 26.4682 -1.14277 0.612816
upperback 5.98566 -0.911267 -0.92874
thorax -8.03938 -0.249312 -1.11233
lowerneck 6.20384 -0.0708556 0.364732
upperneck -17.0404 0.58862 2.3667
head -6.1893 0.192451 0.635544
rclavicle -1.05356e-014 6.16232e-015
rhumerus -28.0993 3.81359 -88.3281
rradius 36.0888
rwrist -4.26164
rhand -20.9484 -6.78302
rfingers 7.12502
rthumb 5.42418 -36.6936
lclavicle -1.05356e-014 6.16232e-015
lhumerus -29.2218 -7.35469 88.1928
lradius 35.2822
lwrist 24.3732
lhand -20.2377 9.30964
lfingers 7.12502
lthumb 6.11037 39.2015
rfemur -58.8352 -2.77427 28.3473
rtibia 38.9123
rfoot -6.11001 -10.6937
rtoes 6.40412
lfemur -30.6185 5.00702 -23.3266
ltibia 53.5352
lfoot -11.1543 -5.03798
ltoes -18.4392
1013
root -35.8051 16.5995 -5.1413 -956.493 89.5268 -978.646
lowerback 26.4466 -1.15275 0.509736
upperback 5.99278 -0.95717 -0.993019
thorax -8.021 -0.269177 -1.10934
lowerneck 6.25381 -0.0774534 0.378123
upperneck -17.0496 0.585147 2.39042
head -6.20097 0.187208 0.64116
rclavicle -8.15017e-015 -1.96797e-014
rhumerus -28.1049 3.74337 -88.3567
rradius 36.1063
rwrist -4.23656
rhand -20.9976 -6.75238
rfingers 7.12502
rthumb 5.37664 -36.6642
lclavicle -8.15017e-015 -1.96797e-014
lhumerus -29.2034 -7.40668 88.2152
lradius 35.3147
lwrist 24.3841
lhand -20.2537 9.29676
lfingers 7.12502
lthumb 6.09491 39.1891
rfemur -59.1673 -2.74729 28.0882
rtibia 38.7119
rfoot -5.31972 -10.8874
rtoes 6.34437
lfemur -29.8242 4.93384 -23.7502
ltibia 52.0258
lfoot -13.0352 -4.72084
ltoes -18.694
1014
root -35.9307 16.5874 -5.16754 -966.844 89.3798 -988.927
lowerback 26.439 -1.17198 0.393499
upperback 6.00142 -1.01751 -1.05595
thorax -8.00794 -0.295374 -1.09259
lowerneck 6.29576 -0.0800324 0.38532
upperneck -17.0646 0.586358 2.41122
head -6.21312 0.185036 0.646546
rclavicle 7.95139e-016 1.39149e-015
rhumerus -28.097 3.67644 -88.3825
rradius 36.1111
rwrist -4.21276
rhand -21.0546 -6.72256
rfingers 7.12502
rthumb 5.32166 -36.6357
lclavicle 7.95139e-016 1.39149e-015
lhumerus -29.169 -7.44808 88.236
lradius 35.3337
lwrist 24.3878
lhand -20.2751 9.265
lfingers 7.12502
lthumb 6.07427 39.1579
rfemur -59.4959 -2.71585 27.7773
rtibia 38.4801
rfoot -4.45629 -11.1198
rtoes 6.33852
lfemur -29.13 4.86607 -24.2081
ltibia 50.5833
lfoot -14.6697 -4.30531
ltoes -18.678
1015
root -36.0596 16.5783 -5.19322 -971.615 89.1969 -993.645
lowerback 26.4407 -1.19422 0.255725
upperback 6.00635 -1.08713 -1.11737
thorax -8.0033 -0.325549 -1.05874
lowerneck 6.32315 -0.0806234 0.385038
upperneck -17.0751 0.589545 2.43371
head -6.22133 0.184397 0.653549
rclavicle 5.56597e-015 5.96354e-015
rhumerus -28.0806 3.61343 -88.4063
rradius 36.1126
rwrist -4.19544
rhand -21.1209 -6.6903
rfingers 7.12502
rthumb 5.25761 -36.6051
lclavicle 5.56597e-015 5.96354e-015
lhumerus -29.1161 -7.48432 88.2554
lradius 35.3391
lwrist 24.3844
lhand -20.3003 9.22722
lfingers 7.12502
lthumb 6.04986 39.1208
rfemur -59.8371 -2.65772 27.3959
rtibia 38.2099
rfoot -3.53868 -11.4217
rtoes 6.47291
lfemur -28.5742 4.81102 -24.7054
ltibia 49.2456
lfoot -16.0172 -3.77203
ltoes -18.3647
1016
root -36.1912 16.5725 -5.2186 -973.327 88.9976 -995.321
lowerback 26.4489 -1.22021 0.111999
upperback 6.01009 -1.16267 -1.17618
thorax -8.00299 -0.358309 -1.01665
lowerneck 6.3431 -0.0815912 0.388325
upperneck -17.0895 0.591269 2.44637
head -6.22944 0.183713 0.656945
rclavicle 2.18663e-015 5.1684e-015
rhumerus -28.0543 3.55455 -88.4272
rradius 36.112
rwrist -4.18027
rhand -21.1763 -6.66372
rfingers 7.12502
rthumb 5.20413 -36.5798
lclavicle 2.18663e-015 5.1684e-015
lhumerus -29.0407 -7.51735 88.274
lradius 35.3348
lwrist 24.3741
lhand -20.3246 9.20619
lfingers 7.12502
lthumb 6.02641 39.1005
rfemur -60.1838 -2.57395 26.9474
rtibia 37.906
rfoot -2.60787 -11.7958
rtoes 6.88859
lfemur -28.1596 4.76755 -25.2293
ltibia 48.0325
lfoot -17.1339 -3.18156
ltoes -17.8508
1017
root -36.3258 16.5689 -5.24358 -975.262 88.8198 -997.245
lowerback 26.456 -1.23269 -0.0326357
upperback 6.01128 -1.22063 -1.22471
thorax -8.0041 -0.382897 -0.968335
lowerneck 6.34468 -0.0834739 0.392824
upperneck -17.0992 0.589668 2.44711
head -6.23278 0.18251 0.656571
rclavicle 2.16675e-014 3.81667e-014
rhumerus -28.0179 3.50807 -88.4436
rradius 36.1145
rwrist -4.17086
rhand -21.2163 -6.64102
rfingers 7.12502
rthumb 5.16554 -36.5581
lclavicle 2.16675e-014 3.81667e-014
lhumerus -28.939 -7.54642 88.2954
lradius 35.3199
lwrist 24.3584
lhand -20.3454 9.19784
lfingers 7.12502
lthumb 6.00636 39.0927
rfemur -60.5511 -2.4077 26.4561
rtibia 37.569
rfoot -1.63784 -12.2797
rtoes 7.42376
lfemur -27.9057 4.77141 -25.7453
ltibia 46.9563
lfoot -18.0453 -2.58031
ltoes -16.8791
1018
root -36.4622 16.5673 -5.26889 -976.861 88.6474 -998.857
lowerback 26.4475 -1.2401 -0.177324
upperback 6.01488 -1.27157 -1.26739
thorax -7.99427 -0.40421 -0.915909
lowerneck 6.33719 -0.0871642 0.385064
upperneck -17.1185 0.585594 2.45379
head -6.23753 0.180623 0.660304
rclavicle 9.14409e-015 2.24627e-014
rhumerus -27.9723 3.48832 -88.458
rradius 36.1301
rwrist -4.17163
rhand -21.2368 -6.64214
rfingers 7.12502
rthumb 5.14568 -36.5597
lclavicle 9.14409e-015 2.24627e-014
lhumerus -28.8158 -7.56499 88.3182
lradius 35.3079
lwrist 24.3392
lhand -20.3638 9.20355
lfingers 7.12502
lthumb 5.98859 39.0989
rfemur -60.9438 -2.21243 25.9269
rtibia 37.2085
rfoot -0.639765 -12.85
rtoes 8.11895
lfemur -27.7931 4.79738 -26.2624
ltibia 46.0034
lfoot -18.7864 -2.01735
ltoes -15.7187
1019
root -36.5995 16.568 -5.29497 -978.903 88.5012 -1000.93
lowerback 26.4256 -1.23775 -0.307367
upperback 6.02257 -1.30529 -1.30154
thorax -7.97283 -0.417721 -0.868165
lowerneck 6.32665 -0.0918684 0.372766
upperneck -17.1499 0.579827 2.45815
head -6.24559 0.178492 0.664193
rclavicle -9.54166e-015 -1.66979e-014
rhumerus -27.9236 3.50176 -88.471
rradius 36.1615
rwrist -4.18523
rhand -21.2452 -6.6551
rfingers 7.12502
rthumb 5.13756 -36.5728
lclavicle -9.54166e-015 -1.66979e-014
lhumerus -28.6792 -7.57336 88.3431
lradius 35.3053
lwrist 24.3212
lhand -20.3751 9.21609
lfingers 7.12502
lthumb 5.97767 39.1118
rfemur -61.3478 -1.98551 25.3817
rtibia 36.8282
rfoot 0.371976 -13.4959
rtoes 8.96012
lfemur -27.7963 4.85317 -26.7502
ltibia 45.1589
lfoot -19.3872 -1.5272
ltoes -14.4723
1020
root -36.7373 16.5702 -5.32167 -981.456 88.3855 -1003.52
lowerback 26.4012 -1.22676 -0.421484
upperback 6.03764 -1.3222 -1.32507
thorax -7.94165 -0.423478 -0.823333
lowerneck 6.31177 -0.094507 0.346101
upperneck -17.1962 0.577389 2.47077
head -6.25768 0.178443 0.672867
rclavicle 2.32578e-014 2.62396e-014
rhumerus -27.8671 3.55127 -88.4827
rradius 36.2015
rwrist -4.20577
rhand -21.2436 -6.66045
rfingers 7.12502
rthumb 5.13913 -36.5781
lclavicle 2.32578e-014 2.62396e-014
lhumerus -28.535 -7.57242 88.3713
lradius 35.3212
lwrist 24.3142
lhand -20.3923 9.24157
lfingers 7.12502
lthumb 5.96107 39.1377
rfemur -61.7563 -1.74258 24.844
rtibia 36.4377
rfoot 1.42094 -14.2021
rtoes 9.7877
lfemur -27.8812 4.93651 -27.1886
ltibia 44.4012
lfoot -19.8742 -1.13387
ltoes -13.4216
